# xmcd CD database file
#
# Track frame offsets:
#	150
#	12976
#	30101
#	44977
#	59061
#	72704
#	94347
#	104560
#	115419
#	131521
#	140942
#	156701
#	173005
#	188359
#
# Disc length: 2684 seconds
#
# Revision: 3
# Processed by: cddbd v1.5.2PL0 Copyright (c) Steve Scherf et al.
# Submitted via: CDex 2.21
#
DISCID=d80a7a0e
DTITLE=Erin Hay - Honky Tonk Heaven
DYEAR=2000
DGENRE=Country
TTITLE0=You're A Lesson I've Already Learned
TTITLE1=There Goes My Everything
TTITLE2=Bad Luck
TTITLE3=Honky Tonk Heaven
TTITLE4=Poison Of Your Kiss
TTITLE5=Cheater's Moon
TTITLE6=Alone With You
TTITLE7=Honky Tonk Girl
TTITLE8=Autumn's Not That Cold
TTITLE9=Your Good Girl's Gonna Go Bad
TTITLE10=If The Phone Don't Ring
TTITLE11=Mirror! Mirror! (On The Wall)
TTITLE12=My Hands Are Full
TTITLE13=I Got The Blues Again
EXTD=YEAR: 2000
EXTT0=
EXTT1=
EXTT2=
EXTT3=
EXTT4=
EXTT5=
EXTT6=
EXTT7=
EXTT8=
EXTT9=
EXTT10=
EXTT11=
EXTT12=
EXTT13=
PLAYORDER=
